<svg xmlns="http://www.w3.org/2000/svg" xmlns:xlink="http://www.w3.org/1999/xlink" width="1080" zoomAndPan="magnify" viewBox="0 0 810 809.999993" height="1080" preserveAspectRatio="xMidYMid meet" version="1.0"><defs><clipPath id="c1e1ad29dc"><path d="M 442.054688 370.550781 L 685.054688 370.550781 L 685.054688 613.550781 L 442.054688 613.550781 Z M 442.054688 370.550781 " clip-rule="nonzero"/></clipPath><clipPath id="772871b0a8"><path d="M 0.0546875 0.550781 L 243.054688 0.550781 L 243.054688 243.550781 L 0.0546875 243.550781 Z M 0.0546875 0.550781 " clip-rule="nonzero"/></clipPath><clipPath id="d680f811f4"><rect x="0" width="244" y="0" height="244"/></clipPath></defs><g clip-path="url(#c1e1ad29dc)"><g transform="matrix(1, 0, 0, 1, 442, 370)"><g clip-path="url(#d680f811f4)"><g clip-path="url(#772871b0a8)"><path fill="#000000" d="M 0.0546875 0.550781 L 243.054688 0.550781 L 243.054688 243.550781 L 0.0546875 243.550781 Z M 0.0546875 0.550781 " fill-opacity="1" fill-rule="nonzero"/></g></g></g></g><path fill="#7ed957" d="M 200.933594 211.742188 L 607.789062 211.742188 C 612.542969 211.738281 617.28125 212.039062 622 212.644531 C 621.804688 211.246094 621.570312 209.855469 621.300781 208.46875 C 621.03125 207.082031 620.726562 205.707031 620.386719 204.335938 C 620.046875 202.964844 619.675781 201.601562 619.265625 200.25 C 618.859375 198.898438 618.417969 197.558594 617.941406 196.230469 C 617.46875 194.902344 616.960938 193.585938 616.417969 192.28125 C 615.875 190.976562 615.300781 189.6875 614.695312 188.414062 C 614.089844 187.136719 613.449219 185.878906 612.777344 184.636719 C 612.109375 183.394531 611.40625 182.171875 610.675781 180.964844 C 609.945312 179.757812 609.179688 178.566406 608.390625 177.398438 C 607.597656 176.230469 606.777344 175.082031 605.925781 173.957031 C 605.078125 172.828125 604.199219 171.722656 603.292969 170.640625 C 602.386719 169.558594 601.453125 168.5 600.496094 167.460938 C 599.535156 166.425781 598.550781 165.414062 597.539062 164.429688 C 596.53125 163.445312 595.496094 162.484375 594.4375 161.550781 C 593.378906 160.617188 592.296875 159.710938 591.191406 158.828125 C 590.089844 157.949219 588.960938 157.101562 587.816406 156.277344 C 586.667969 155.453125 585.5 154.660156 584.3125 153.898438 C 583.125 153.136719 581.917969 152.402344 580.695312 151.699219 C 579.46875 150.996094 578.230469 150.324219 576.96875 149.683594 C 575.710938 149.042969 574.4375 148.4375 573.148438 147.859375 C 571.859375 147.285156 570.558594 146.742188 569.242188 146.234375 C 567.925781 145.722656 566.597656 145.246094 565.257812 144.804688 C 563.914062 144.359375 562.566406 143.953125 561.203125 143.578125 C 559.84375 143.203125 558.472656 142.863281 557.09375 142.554688 C 555.714844 142.25 554.332031 141.980469 552.941406 141.742188 C 551.546875 141.507812 550.152344 141.308594 548.75 141.140625 C 547.347656 140.976562 545.941406 140.847656 544.53125 140.753906 C 543.125 140.660156 541.714844 140.601562 540.300781 140.578125 C 538.890625 140.554688 537.480469 140.566406 536.070312 140.613281 C 534.65625 140.664062 533.25 140.746094 531.84375 140.863281 C 530.4375 140.984375 529.03125 141.140625 527.632812 141.328125 C 526.234375 141.519531 524.84375 141.742188 523.453125 142.003906 L 188.855469 199.128906 L 188.476562 199.128906 C 183.269531 200.125 178.207031 201.597656 173.28125 203.554688 C 168.359375 205.507812 163.660156 207.90625 159.191406 210.75 C 154.722656 213.59375 150.558594 216.832031 146.703125 220.464844 C 142.84375 224.097656 139.363281 228.058594 136.257812 232.351562 C 140.949219 229.011719 145.875 226.054688 151.027344 223.480469 C 156.179688 220.90625 161.5 218.746094 166.988281 216.996094 C 172.476562 215.25 178.066406 213.933594 183.757812 213.050781 C 189.449219 212.171875 195.175781 211.734375 200.933594 211.742188 Z M 607.789062 242.253906 L 200.933594 242.253906 C 199.601562 242.257812 198.273438 242.292969 196.941406 242.359375 C 195.613281 242.425781 194.285156 242.523438 192.960938 242.65625 C 191.636719 242.789062 190.316406 242.953125 189 243.148438 C 187.683594 243.34375 186.371094 243.574219 185.066406 243.832031 C 183.761719 244.09375 182.460938 244.386719 181.171875 244.710938 C 179.878906 245.035156 178.597656 245.390625 177.324219 245.777344 C 176.050781 246.167969 174.785156 246.585938 173.535156 247.035156 C 172.28125 247.484375 171.039062 247.964844 169.808594 248.472656 C 168.578125 248.984375 167.363281 249.523438 166.160156 250.09375 C 164.957031 250.664062 163.769531 251.261719 162.59375 251.890625 C 161.421875 252.519531 160.261719 253.175781 159.121094 253.859375 C 157.980469 254.542969 156.855469 255.257812 155.75 255.996094 C 154.640625 256.734375 153.554688 257.503906 152.484375 258.296875 C 151.414062 259.089844 150.367188 259.910156 149.335938 260.753906 C 148.308594 261.597656 147.300781 262.46875 146.3125 263.359375 C 145.328125 264.253906 144.363281 265.171875 143.421875 266.113281 C 142.480469 267.054688 141.5625 268.019531 140.667969 269.007812 C 139.777344 269.992188 138.90625 271 138.0625 272.027344 C 137.214844 273.058594 136.398438 274.105469 135.605469 275.175781 C 134.8125 276.246094 134.042969 277.332031 133.304688 278.441406 C 132.566406 279.546875 131.851562 280.671875 131.167969 281.8125 C 130.484375 282.953125 129.828125 284.113281 129.199219 285.285156 C 128.570312 286.460938 127.972656 287.648438 127.402344 288.851562 C 126.832031 290.054688 126.292969 291.269531 125.78125 292.5 C 125.269531 293.730469 124.792969 294.972656 124.34375 296.226562 C 123.894531 297.476562 123.476562 298.742188 123.085938 300.015625 C 122.699219 301.289062 122.34375 302.570312 122.019531 303.863281 C 121.695312 305.152344 121.402344 306.453125 121.140625 307.757812 C 120.882812 309.0625 120.652344 310.375 120.457031 311.691406 C 120.257812 313.007812 120.09375 314.328125 119.964844 315.652344 C 119.832031 316.976562 119.734375 318.304688 119.667969 319.632812 C 119.597656 320.964844 119.566406 322.292969 119.5625 323.625 L 119.5625 567.738281 C 119.566406 569.070312 119.597656 570.398438 119.667969 571.730469 C 119.734375 573.058594 119.832031 574.386719 119.964844 575.710938 C 120.09375 577.035156 120.257812 578.355469 120.457031 579.671875 C 120.652344 580.988281 120.882812 582.300781 121.140625 583.605469 C 121.402344 584.910156 121.695312 586.210938 122.019531 587.5 C 122.34375 588.792969 122.699219 590.074219 123.085938 591.347656 C 123.476562 592.621094 123.894531 593.886719 124.34375 595.140625 C 124.792969 596.390625 125.269531 597.632812 125.78125 598.863281 C 126.292969 600.09375 126.832031 601.308594 127.402344 602.511719 C 127.972656 603.714844 128.570312 604.90625 129.199219 606.078125 C 129.828125 607.253906 130.484375 608.410156 131.167969 609.550781 C 131.851562 610.691406 132.566406 611.816406 133.304688 612.925781 C 134.042969 614.03125 134.8125 615.117188 135.605469 616.1875 C 136.398438 617.257812 137.214844 618.304688 138.0625 619.335938 C 138.90625 620.363281 139.777344 621.371094 140.667969 622.359375 C 141.5625 623.34375 142.480469 624.308594 143.421875 625.25 C 144.363281 626.191406 145.328125 627.109375 146.3125 628.003906 C 147.300781 628.898438 148.308594 629.765625 149.335938 630.609375 C 150.367188 631.457031 151.414062 632.273438 152.484375 633.066406 C 153.554688 633.859375 154.640625 634.628906 155.75 635.367188 C 156.855469 636.109375 157.980469 636.820312 159.121094 637.503906 C 160.261719 638.191406 161.421875 638.847656 162.59375 639.472656 C 163.769531 640.101562 164.957031 640.699219 166.160156 641.269531 C 167.363281 641.839844 168.578125 642.378906 169.808594 642.890625 C 171.039062 643.402344 172.28125 643.878906 173.535156 644.328125 C 174.785156 644.777344 176.050781 645.199219 177.324219 645.585938 C 178.597656 645.972656 179.878906 646.328125 181.171875 646.652344 C 182.460938 646.976562 183.761719 647.269531 185.066406 647.53125 C 186.371094 647.792969 187.683594 648.019531 189 648.214844 C 190.316406 648.414062 191.636719 648.578125 192.960938 648.707031 C 194.285156 648.839844 195.613281 648.941406 196.941406 649.007812 C 198.273438 649.074219 199.601562 649.105469 200.933594 649.109375 L 607.789062 649.109375 C 609.117188 649.105469 610.449219 649.074219 611.777344 649.007812 C 613.109375 648.941406 614.4375 648.839844 615.761719 648.707031 C 617.085938 648.578125 618.40625 648.414062 619.722656 648.214844 C 621.039062 648.019531 622.351562 647.792969 623.65625 647.53125 C 624.960938 647.269531 626.261719 646.976562 627.550781 646.652344 C 628.84375 646.328125 630.125 645.972656 631.398438 645.585938 C 632.671875 645.199219 633.933594 644.777344 635.1875 644.328125 C 636.441406 643.878906 637.683594 643.402344 638.914062 642.890625 C 640.140625 642.378906 641.359375 641.839844 642.5625 641.269531 C 643.765625 640.699219 644.953125 640.101562 646.128906 639.472656 C 647.300781 638.847656 648.460938 638.191406 649.601562 637.503906 C 650.742188 636.820312 651.867188 636.109375 652.972656 635.367188 C 654.082031 634.628906 655.167969 633.859375 656.238281 633.066406 C 657.304688 632.273438 658.355469 631.457031 659.382812 630.609375 C 660.414062 629.765625 661.421875 628.898438 662.40625 628.003906 C 663.394531 627.109375 664.359375 626.191406 665.300781 625.25 C 666.242188 624.308594 667.160156 623.34375 668.050781 622.359375 C 668.945312 621.371094 669.816406 620.363281 670.660156 619.335938 C 671.503906 618.304688 672.324219 617.257812 673.117188 616.1875 C 673.910156 615.117188 674.675781 614.03125 675.417969 612.925781 C 676.15625 611.816406 676.871094 610.691406 677.554688 609.550781 C 678.238281 608.410156 678.894531 607.253906 679.523438 606.078125 C 680.152344 604.90625 680.75 603.714844 681.320312 602.511719 C 681.890625 601.308594 682.429688 600.09375 682.941406 598.863281 C 683.449219 597.632812 683.929688 596.390625 684.378906 595.140625 C 684.828125 593.886719 685.246094 592.621094 685.632812 591.347656 C 686.023438 590.074219 686.378906 588.792969 686.703125 587.5 C 687.027344 586.210938 687.320312 584.910156 687.578125 583.605469 C 687.839844 582.300781 688.070312 580.988281 688.265625 579.671875 C 688.460938 578.355469 688.625 577.035156 688.757812 575.710938 C 688.890625 574.386719 688.988281 573.058594 689.054688 571.730469 C 689.121094 570.398438 689.15625 569.070312 689.15625 567.738281 L 689.15625 323.625 C 689.15625 322.292969 689.121094 320.964844 689.054688 319.632812 C 688.988281 318.304688 688.890625 316.976562 688.757812 315.652344 C 688.625 314.328125 688.460938 313.007812 688.265625 311.691406 C 688.070312 310.375 687.839844 309.0625 687.578125 307.757812 C 687.320312 306.453125 687.027344 305.152344 686.703125 303.863281 C 686.378906 302.570312 686.023438 301.289062 685.632812 300.015625 C 685.246094 298.742188 684.828125 297.476562 684.378906 296.226562 C 683.929688 294.972656 683.449219 293.730469 682.941406 292.5 C 682.429688 291.269531 681.890625 290.054688 681.320312 288.851562 C 680.75 287.648438 680.152344 286.460938 679.523438 285.285156 C 678.894531 284.113281 678.238281 282.953125 677.554688 281.8125 C 676.871094 280.671875 676.15625 279.546875 675.417969 278.441406 C 674.675781 277.332031 673.910156 276.246094 673.117188 275.175781 C 672.324219 274.105469 671.503906 273.058594 670.660156 272.027344 C 669.816406 271 668.945312 269.992188 668.050781 269.007812 C 667.160156 268.019531 666.242188 267.054688 665.300781 266.113281 C 664.359375 265.171875 663.394531 264.253906 662.40625 263.359375 C 661.421875 262.46875 660.414062 261.597656 659.382812 260.753906 C 658.355469 259.910156 657.304688 259.089844 656.238281 258.296875 C 655.167969 257.503906 654.082031 256.734375 652.972656 255.996094 C 651.867188 255.257812 650.742188 254.542969 649.601562 253.859375 C 648.460938 253.175781 647.300781 252.519531 646.128906 251.890625 C 644.953125 251.261719 643.765625 250.664062 642.5625 250.09375 C 641.359375 249.523438 640.140625 248.984375 638.914062 248.472656 C 637.683594 247.964844 636.441406 247.484375 635.1875 247.035156 C 633.933594 246.585938 632.671875 246.167969 631.398438 245.777344 C 630.125 245.390625 628.84375 245.035156 627.550781 244.710938 C 626.261719 244.386719 624.960938 244.09375 623.65625 243.832031 C 622.351562 243.574219 621.039062 243.34375 619.722656 243.148438 C 618.40625 242.953125 617.085938 242.789062 615.761719 242.65625 C 614.4375 242.523438 613.109375 242.425781 611.777344 242.359375 C 610.449219 242.292969 609.117188 242.257812 607.789062 242.253906 Z M 547.394531 486.367188 C 546.0625 486.367188 544.734375 486.300781 543.40625 486.171875 C 542.082031 486.039062 540.765625 485.84375 539.457031 485.585938 C 538.152344 485.324219 536.859375 485.003906 535.585938 484.617188 C 534.308594 484.230469 533.058594 483.78125 531.824219 483.269531 C 530.59375 482.761719 529.390625 482.191406 528.214844 481.5625 C 527.042969 480.933594 525.898438 480.25 524.792969 479.511719 C 523.683594 478.769531 522.613281 477.976562 521.585938 477.132812 C 520.554688 476.285156 519.570312 475.394531 518.625 474.449219 C 517.683594 473.507812 516.789062 472.523438 515.945312 471.492188 C 515.101562 470.460938 514.308594 469.394531 513.566406 468.285156 C 512.828125 467.175781 512.140625 466.035156 511.515625 464.859375 C 510.886719 463.6875 510.316406 462.484375 509.808594 461.25 C 509.296875 460.019531 508.847656 458.765625 508.460938 457.492188 C 508.074219 456.21875 507.75 454.925781 507.492188 453.621094 C 507.230469 452.3125 507.035156 450.996094 506.90625 449.667969 C 506.773438 448.34375 506.710938 447.015625 506.710938 445.683594 C 506.710938 444.347656 506.773438 443.019531 506.90625 441.695312 C 507.035156 440.367188 507.230469 439.050781 507.492188 437.746094 C 507.75 436.4375 508.074219 435.148438 508.460938 433.871094 C 508.847656 432.597656 509.296875 431.34375 509.808594 430.113281 C 510.316406 428.882812 510.886719 427.679688 511.515625 426.503906 C 512.140625 425.328125 512.828125 424.1875 513.566406 423.078125 C 514.308594 421.96875 515.101562 420.902344 515.945312 419.871094 C 516.789062 418.839844 517.683594 417.855469 518.625 416.914062 C 519.570312 415.972656 520.554688 415.078125 521.585938 414.230469 C 522.613281 413.386719 523.683594 412.59375 524.792969 411.851562 C 525.898438 411.113281 527.042969 410.429688 528.214844 409.800781 C 529.390625 409.171875 530.59375 408.605469 531.824219 408.09375 C 533.058594 407.582031 534.308594 407.136719 535.585938 406.75 C 536.859375 406.363281 538.152344 406.039062 539.457031 405.777344 C 540.765625 405.519531 542.082031 405.324219 543.40625 405.191406 C 544.734375 405.0625 546.0625 404.996094 547.394531 404.996094 C 548.726562 404.996094 550.058594 405.0625 551.382812 405.191406 C 552.710938 405.324219 554.027344 405.519531 555.332031 405.777344 C 556.640625 406.039062 557.929688 406.363281 559.207031 406.75 C 560.480469 407.136719 561.734375 407.582031 562.964844 408.09375 C 564.195312 408.605469 565.398438 409.171875 566.574219 409.800781 C 567.75 410.429688 568.890625 411.113281 570 411.851562 C 571.105469 412.59375 572.175781 413.386719 573.207031 414.230469 C 574.234375 415.078125 575.222656 415.972656 576.164062 416.914062 C 577.105469 417.855469 578 418.839844 578.84375 419.871094 C 579.691406 420.902344 580.484375 421.96875 581.222656 423.078125 C 581.964844 424.1875 582.648438 425.328125 583.277344 426.503906 C 583.90625 427.679688 584.472656 428.882812 584.984375 430.113281 C 585.492188 431.34375 585.941406 432.597656 586.328125 433.871094 C 586.714844 435.148438 587.039062 436.4375 587.296875 437.746094 C 587.558594 439.050781 587.753906 440.367188 587.882812 441.695312 C 588.015625 443.019531 588.082031 444.347656 588.082031 445.683594 C 588.082031 447.015625 588.015625 448.34375 587.882812 449.667969 C 587.753906 450.996094 587.558594 452.3125 587.296875 453.621094 C 587.039062 454.925781 586.714844 456.21875 586.328125 457.492188 C 585.941406 458.765625 585.492188 460.019531 584.984375 461.25 C 584.472656 462.484375 583.90625 463.6875 583.277344 464.859375 C 582.648438 466.035156 581.964844 467.175781 581.222656 468.285156 C 580.484375 469.394531 579.691406 470.460938 578.84375 471.492188 C 578 472.523438 577.105469 473.507812 576.164062 474.449219 C 575.222656 475.394531 574.234375 476.285156 573.207031 477.132812 C 572.175781 477.976562 571.105469 478.769531 570 479.511719 C 568.890625 480.25 567.75 480.933594 566.574219 481.5625 C 565.398438 482.191406 564.195312 482.761719 562.964844 483.269531 C 561.734375 483.78125 560.480469 484.230469 559.207031 484.617188 C 557.929688 485.003906 556.640625 485.324219 555.332031 485.585938 C 554.027344 485.84375 552.710938 486.039062 551.382812 486.171875 C 550.058594 486.300781 548.726562 486.367188 547.394531 486.367188 Z M 547.394531 486.367188 " fill-opacity="1" fill-rule="nonzero"/><path fill="#7ed957" d="M 120.199219 409.445312 L 120.199219 282.941406 C 120.199219 255.390625 135.457031 209.199219 188.410156 199.191406 C 233.355469 190.761719 277.855469 190.761719 277.855469 190.761719 C 277.855469 190.761719 307.097656 211.105469 282.941406 211.105469 C 258.785156 211.105469 259.417969 242.253906 282.941406 242.253906 C 306.460938 242.253906 282.941406 272.132812 282.941406 272.132812 L 188.21875 379.570312 Z M 120.199219 409.445312 " fill-opacity="1" fill-rule="nonzero"/><path fill="#ffffff" d="M 215.839844 223.742188 L 622.691406 223.742188 C 627.449219 223.738281 632.1875 224.039062 636.90625 224.644531 C 636.707031 223.246094 636.472656 221.855469 636.203125 220.46875 C 635.933594 219.082031 635.628906 217.707031 635.289062 216.335938 C 634.953125 214.964844 634.578125 213.601562 634.171875 212.25 C 633.761719 210.898438 633.320312 209.558594 632.847656 208.230469 C 632.371094 206.902344 631.863281 205.585938 631.320312 204.28125 C 630.777344 202.976562 630.203125 201.6875 629.597656 200.414062 C 628.992188 199.136719 628.351562 197.878906 627.683594 196.636719 C 627.011719 195.394531 626.3125 194.171875 625.578125 192.964844 C 624.847656 191.757812 624.085938 190.566406 623.292969 189.398438 C 622.5 188.230469 621.679688 187.082031 620.828125 185.957031 C 619.980469 184.828125 619.101562 183.722656 618.195312 182.640625 C 617.289062 181.558594 616.359375 180.5 615.398438 179.460938 C 614.4375 178.425781 613.453125 177.414062 612.445312 176.429688 C 611.433594 175.445312 610.398438 174.484375 609.339844 173.550781 C 608.28125 172.617188 607.199219 171.710938 606.097656 170.828125 C 604.992188 169.949219 603.867188 169.101562 602.71875 168.277344 C 601.570312 167.453125 600.402344 166.660156 599.214844 165.898438 C 598.027344 165.136719 596.824219 164.402344 595.597656 163.699219 C 594.375 162.996094 593.132812 162.324219 591.875 161.683594 C 590.617188 161.042969 589.34375 160.4375 588.054688 159.859375 C 586.765625 159.285156 585.460938 158.742188 584.144531 158.234375 C 582.828125 157.722656 581.5 157.246094 580.160156 156.804688 C 578.820312 156.359375 577.46875 155.953125 576.109375 155.578125 C 574.746094 155.203125 573.375 154.863281 572 154.554688 C 570.621094 154.25 569.234375 153.980469 567.84375 153.742188 C 566.453125 153.507812 565.054688 153.308594 563.652344 153.140625 C 562.25 152.976562 560.84375 152.847656 559.4375 152.753906 C 558.027344 152.660156 556.617188 152.601562 555.207031 152.578125 C 553.792969 152.554688 552.382812 152.566406 550.972656 152.613281 C 549.5625 152.664062 548.152344 152.746094 546.746094 152.863281 C 545.339844 152.984375 543.9375 153.140625 542.539062 153.328125 C 541.140625 153.519531 539.746094 153.742188 538.359375 154.003906 L 203.757812 211.128906 L 203.378906 211.128906 C 198.175781 212.125 193.109375 213.597656 188.1875 215.554688 C 183.261719 217.507812 178.566406 219.90625 174.09375 222.75 C 169.625 225.59375 165.460938 228.832031 161.605469 232.464844 C 157.75 236.097656 154.265625 240.058594 151.160156 244.351562 C 155.855469 241.011719 160.777344 238.054688 165.929688 235.480469 C 171.082031 232.90625 176.402344 230.746094 181.890625 228.996094 C 187.378906 227.25 192.96875 225.933594 198.660156 225.050781 C 204.351562 224.171875 210.078125 223.734375 215.839844 223.742188 Z M 622.691406 254.253906 L 215.839844 254.253906 C 214.507812 254.257812 213.175781 254.292969 211.847656 254.359375 C 210.515625 254.425781 209.191406 254.523438 207.863281 254.65625 C 206.539062 254.789062 205.21875 254.953125 203.902344 255.148438 C 202.585938 255.34375 201.273438 255.574219 199.96875 255.832031 C 198.664062 256.09375 197.367188 256.386719 196.074219 256.710938 C 194.785156 257.035156 193.5 257.390625 192.226562 257.777344 C 190.953125 258.167969 189.691406 258.585938 188.4375 259.035156 C 187.183594 259.484375 185.941406 259.964844 184.710938 260.472656 C 183.484375 260.984375 182.265625 261.523438 181.0625 262.09375 C 179.859375 262.664062 178.671875 263.261719 177.496094 263.890625 C 176.324219 264.519531 175.167969 265.175781 174.023438 265.859375 C 172.882812 266.542969 171.757812 267.257812 170.652344 267.996094 C 169.546875 268.734375 168.457031 269.503906 167.386719 270.296875 C 166.320312 271.089844 165.269531 271.910156 164.242188 272.753906 C 163.210938 273.597656 162.203125 274.46875 161.21875 275.359375 C 160.230469 276.253906 159.269531 277.171875 158.328125 278.113281 C 157.386719 279.054688 156.46875 280.019531 155.574219 281.007812 C 154.679688 281.992188 153.808594 283 152.964844 284.027344 C 152.121094 285.058594 151.300781 286.105469 150.507812 287.175781 C 149.714844 288.246094 148.949219 289.332031 148.207031 290.441406 C 147.46875 291.546875 146.753906 292.671875 146.070312 293.8125 C 145.386719 294.953125 144.730469 296.113281 144.101562 297.285156 C 143.472656 298.460938 142.875 299.648438 142.304688 300.851562 C 141.734375 302.054688 141.195312 303.269531 140.683594 304.5 C 140.175781 305.730469 139.695312 306.972656 139.246094 308.226562 C 138.796875 309.476562 138.378906 310.742188 137.992188 312.015625 C 137.605469 313.289062 137.246094 314.570312 136.921875 315.863281 C 136.597656 317.152344 136.304688 318.453125 136.046875 319.757812 C 135.785156 321.0625 135.554688 322.375 135.359375 323.691406 C 135.164062 325.007812 135 326.328125 134.867188 327.652344 C 134.734375 328.976562 134.636719 330.304688 134.570312 331.632812 C 134.503906 332.964844 134.46875 334.292969 134.46875 335.625 L 134.46875 579.738281 C 134.46875 581.070312 134.503906 582.398438 134.570312 583.730469 C 134.636719 585.058594 134.734375 586.386719 134.867188 587.710938 C 135 589.035156 135.164062 590.355469 135.359375 591.671875 C 135.554688 592.988281 135.785156 594.300781 136.046875 595.605469 C 136.304688 596.910156 136.597656 598.210938 136.921875 599.5 C 137.246094 600.792969 137.605469 602.074219 137.992188 603.347656 C 138.378906 604.621094 138.796875 605.886719 139.246094 607.140625 C 139.695312 608.390625 140.175781 609.632812 140.683594 610.863281 C 141.195312 612.09375 141.734375 613.308594 142.304688 614.511719 C 142.875 615.714844 143.472656 616.90625 144.101562 618.078125 C 144.730469 619.253906 145.386719 620.410156 146.070312 621.550781 C 146.753906 622.691406 147.46875 623.816406 148.207031 624.925781 C 148.949219 626.03125 149.714844 627.117188 150.507812 628.1875 C 151.300781 629.257812 152.121094 630.304688 152.964844 631.335938 C 153.808594 632.363281 154.679688 633.371094 155.574219 634.359375 C 156.46875 635.34375 157.386719 636.308594 158.328125 637.25 C 159.269531 638.191406 160.230469 639.109375 161.21875 640.003906 C 162.203125 640.898438 163.210938 641.765625 164.242188 642.609375 C 165.269531 643.457031 166.320312 644.273438 167.386719 645.066406 C 168.457031 645.859375 169.546875 646.628906 170.652344 647.367188 C 171.757812 648.109375 172.882812 648.820312 174.023438 649.503906 C 175.167969 650.191406 176.324219 650.847656 177.496094 651.472656 C 178.671875 652.101562 179.859375 652.699219 181.0625 653.269531 C 182.265625 653.839844 183.484375 654.378906 184.710938 654.890625 C 185.941406 655.402344 187.183594 655.878906 188.4375 656.328125 C 189.691406 656.777344 190.953125 657.199219 192.226562 657.585938 C 193.5 657.972656 194.785156 658.328125 196.074219 658.652344 C 197.367188 658.976562 198.664062 659.269531 199.96875 659.53125 C 201.273438 659.792969 202.585938 660.019531 203.902344 660.214844 C 205.21875 660.414062 206.539062 660.578125 207.863281 660.707031 C 209.191406 660.839844 210.515625 660.941406 211.847656 661.007812 C 213.175781 661.074219 214.507812 661.105469 215.839844 661.109375 L 622.691406 661.109375 C 624.023438 661.105469 625.351562 661.074219 626.683594 661.007812 C 628.011719 660.941406 629.339844 660.839844 630.664062 660.707031 C 631.988281 660.578125 633.308594 660.414062 634.625 660.214844 C 635.941406 660.019531 637.253906 659.792969 638.558594 659.53125 C 639.863281 659.269531 641.164062 658.976562 642.453125 658.652344 C 643.746094 658.328125 645.027344 657.972656 646.300781 657.585938 C 647.574219 657.199219 648.839844 656.777344 650.09375 656.328125 C 651.34375 655.878906 652.585938 655.402344 653.816406 654.890625 C 655.046875 654.378906 656.261719 653.839844 657.464844 653.269531 C 658.667969 652.699219 659.855469 652.101562 661.03125 651.472656 C 662.203125 650.847656 663.363281 650.191406 664.503906 649.503906 C 665.644531 648.820312 666.769531 648.109375 667.878906 647.367188 C 668.984375 646.628906 670.070312 645.859375 671.140625 645.066406 C 672.210938 644.273438 673.257812 643.457031 674.289062 642.609375 C 675.316406 641.765625 676.324219 640.898438 677.3125 640.003906 C 678.296875 639.109375 679.261719 638.191406 680.203125 637.25 C 681.144531 636.308594 682.0625 635.34375 682.957031 634.359375 C 683.851562 633.371094 684.71875 632.363281 685.5625 631.335938 C 686.410156 630.304688 687.226562 629.257812 688.019531 628.1875 C 688.8125 627.117188 689.582031 626.03125 690.320312 624.925781 C 691.0625 623.816406 691.773438 622.691406 692.457031 621.550781 C 693.144531 620.410156 693.800781 619.253906 694.425781 618.078125 C 695.054688 616.90625 695.652344 615.714844 696.222656 614.511719 C 696.792969 613.308594 697.332031 612.09375 697.84375 610.863281 C 698.355469 609.632812 698.832031 608.390625 699.28125 607.140625 C 699.730469 605.886719 700.152344 604.621094 700.539062 603.347656 C 700.925781 602.074219 701.28125 600.792969 701.605469 599.5 C 701.929688 598.210938 702.222656 596.910156 702.484375 595.605469 C 702.742188 594.300781 702.972656 592.988281 703.167969 591.671875 C 703.367188 590.355469 703.53125 589.035156 703.660156 587.710938 C 703.792969 586.386719 703.894531 585.058594 703.960938 583.730469 C 704.027344 582.398438 704.058594 581.070312 704.0625 579.738281 L 704.0625 335.625 C 704.058594 334.292969 704.027344 332.964844 703.960938 331.632812 C 703.894531 330.304688 703.792969 328.976562 703.660156 327.652344 C 703.53125 326.328125 703.367188 325.007812 703.167969 323.691406 C 702.972656 322.375 702.742188 321.0625 702.484375 319.757812 C 702.222656 318.453125 701.929688 317.152344 701.605469 315.863281 C 701.28125 314.570312 700.925781 313.289062 700.539062 312.015625 C 700.152344 310.742188 699.730469 309.476562 699.28125 308.226562 C 698.832031 306.972656 698.355469 305.730469 697.84375 304.5 C 697.332031 303.269531 696.792969 302.054688 696.222656 300.851562 C 695.652344 299.648438 695.054688 298.460938 694.425781 297.285156 C 693.800781 296.113281 693.144531 294.953125 692.457031 293.8125 C 691.773438 292.671875 691.0625 291.546875 690.320312 290.441406 C 689.582031 289.332031 688.8125 288.246094 688.019531 287.175781 C 687.226562 286.105469 686.410156 285.058594 685.5625 284.027344 C 684.71875 283 683.851562 281.992188 682.957031 281.007812 C 682.0625 280.019531 681.144531 279.054688 680.203125 278.113281 C 679.261719 277.171875 678.296875 276.253906 677.3125 275.359375 C 676.324219 274.46875 675.316406 273.597656 674.289062 272.753906 C 673.257812 271.910156 672.210938 271.089844 671.140625 270.296875 C 670.070312 269.503906 668.984375 268.734375 667.878906 267.996094 C 666.769531 267.257812 665.644531 266.542969 664.503906 265.859375 C 663.363281 265.175781 662.207031 264.519531 661.03125 263.890625 C 659.855469 263.261719 658.667969 262.664062 657.464844 262.09375 C 656.261719 261.523438 655.046875 260.984375 653.816406 260.472656 C 652.585938 259.964844 651.34375 259.484375 650.09375 259.035156 C 648.839844 258.585938 647.574219 258.167969 646.300781 257.777344 C 645.027344 257.390625 643.746094 257.035156 642.453125 256.710938 C 641.164062 256.386719 639.863281 256.09375 638.558594 255.832031 C 637.253906 255.574219 635.941406 255.34375 634.625 255.148438 C 633.308594 254.953125 631.988281 254.789062 630.664062 254.65625 C 629.339844 254.523438 628.011719 254.425781 626.683594 254.359375 C 625.351562 254.292969 624.023438 254.257812 622.691406 254.253906 Z M 562.296875 498.367188 C 560.964844 498.367188 559.636719 498.300781 558.3125 498.171875 C 556.984375 498.039062 555.667969 497.84375 554.363281 497.585938 C 553.054688 497.324219 551.761719 497.003906 550.488281 496.617188 C 549.214844 496.230469 547.960938 495.78125 546.730469 495.269531 C 545.5 494.761719 544.296875 494.191406 543.121094 493.5625 C 541.945312 492.933594 540.804688 492.25 539.695312 491.511719 C 538.585938 490.769531 537.519531 489.976562 536.488281 489.132812 C 535.457031 488.285156 534.472656 487.394531 533.53125 486.449219 C 532.585938 485.507812 531.695312 484.523438 530.847656 483.492188 C 530.003906 482.460938 529.210938 481.394531 528.46875 480.285156 C 527.730469 479.175781 527.046875 478.035156 526.417969 476.859375 C 525.789062 475.6875 525.21875 474.484375 524.710938 473.25 C 524.199219 472.019531 523.753906 470.765625 523.367188 469.492188 C 522.976562 468.21875 522.65625 466.925781 522.394531 465.621094 C 522.136719 464.3125 521.941406 462.996094 521.808594 461.667969 C 521.679688 460.34375 521.613281 459.015625 521.613281 457.683594 C 521.613281 456.347656 521.679688 455.019531 521.808594 453.695312 C 521.941406 452.367188 522.136719 451.050781 522.394531 449.746094 C 522.65625 448.4375 522.976562 447.148438 523.367188 445.871094 C 523.753906 444.597656 524.199219 443.34375 524.710938 442.113281 C 525.21875 440.882812 525.789062 439.679688 526.417969 438.503906 C 527.046875 437.328125 527.730469 436.1875 528.46875 435.078125 C 529.210938 433.96875 530.003906 432.902344 530.847656 431.871094 C 531.695312 430.839844 532.585938 429.855469 533.53125 428.914062 C 534.472656 427.972656 535.457031 427.078125 536.488281 426.230469 C 537.519531 425.386719 538.585938 424.59375 539.695312 423.851562 C 540.804688 423.113281 541.945312 422.429688 543.121094 421.800781 C 544.296875 421.171875 545.5 420.605469 546.730469 420.09375 C 547.960938 419.582031 549.214844 419.136719 550.488281 418.75 C 551.761719 418.363281 553.054688 418.039062 554.363281 417.777344 C 555.667969 417.519531 556.984375 417.324219 558.3125 417.191406 C 559.636719 417.0625 560.964844 416.996094 562.296875 416.996094 C 563.632812 416.996094 564.960938 417.0625 566.285156 417.191406 C 567.613281 417.324219 568.929688 417.519531 570.234375 417.777344 C 571.542969 418.039062 572.832031 418.363281 574.109375 418.75 C 575.382812 419.136719 576.636719 419.582031 577.867188 420.09375 C 579.097656 420.605469 580.300781 421.171875 581.476562 421.800781 C 582.652344 422.429688 583.792969 423.113281 584.902344 423.851562 C 586.011719 424.59375 587.078125 425.386719 588.109375 426.230469 C 589.140625 427.078125 590.125 427.972656 591.066406 428.914062 C 592.007812 429.855469 592.902344 430.839844 593.75 431.871094 C 594.59375 432.902344 595.386719 433.96875 596.128906 435.078125 C 596.867188 436.1875 597.550781 437.328125 598.179688 438.503906 C 598.808594 439.679688 599.378906 440.882812 599.886719 442.113281 C 600.398438 443.34375 600.84375 444.597656 601.230469 445.871094 C 601.617188 447.148438 601.941406 448.4375 602.203125 449.746094 C 602.460938 451.050781 602.65625 452.367188 602.789062 453.695312 C 602.917969 455.019531 602.984375 456.347656 602.984375 457.683594 C 602.984375 459.015625 602.917969 460.34375 602.789062 461.667969 C 602.65625 462.996094 602.460938 464.3125 602.203125 465.621094 C 601.941406 466.925781 601.617188 468.21875 601.230469 469.492188 C 600.84375 470.765625 600.398438 472.019531 599.886719 473.25 C 599.378906 474.484375 598.808594 475.6875 598.179688 476.859375 C 597.550781 478.035156 596.867188 479.175781 596.128906 480.285156 C 595.386719 481.394531 594.59375 482.460938 593.75 483.492188 C 592.902344 484.523438 592.007812 485.507812 591.066406 486.449219 C 590.125 487.394531 589.140625 488.285156 588.109375 489.132812 C 587.078125 489.976562 586.011719 490.769531 584.902344 491.511719 C 583.792969 492.25 582.652344 492.933594 581.476562 493.5625 C 580.300781 494.191406 579.097656 494.761719 577.867188 495.269531 C 576.636719 495.78125 575.382812 496.230469 574.109375 496.617188 C 572.832031 497.003906 571.542969 497.324219 570.234375 497.585938 C 568.929688 497.84375 567.613281 498.039062 566.285156 498.171875 C 564.960938 498.300781 563.632812 498.367188 562.296875 498.367188 Z M 562.296875 498.367188 " fill-opacity="1" fill-rule="nonzero"/><path fill="#ffffff" d="M 135.101562 421.445312 L 135.101562 294.941406 C 135.101562 267.390625 150.359375 221.199219 203.316406 211.191406 C 248.257812 202.761719 292.757812 202.761719 292.757812 202.761719 C 292.757812 202.761719 322 223.105469 297.84375 223.105469 C 273.6875 223.105469 274.324219 254.253906 297.84375 254.253906 C 321.367188 254.253906 297.84375 284.132812 297.84375 284.132812 L 203.125 391.570312 Z M 135.101562 421.445312 " fill-opacity="1" fill-rule="nonzero"/></svg>